<svg width="256" height="256" viewBox="0 0 256 256" fill="none" xmlns="http://www.w3.org/2000/svg">
<g clip-path="url(#clip0)">
<path d="M158.333 54.3333C155.844 60.3778 153 68.0222 149.8 77.2667C146.6 86.5111 143.044 96.4667 139.133 107.133C135.222 117.444 131.133 128.289 126.867 139.667C122.956 150.689 118.867 161.533 114.6 172.2H166.867C166.156 161.533 165.267 150.689 164.2 139.667C163.133 128.289 162.244 117.444 161.533 107.133C160.822 96.4667 160.111 86.5111 159.4 77.2667C158.689 68.0222 158.333 60.3778 158.333 54.3333ZM135.4 6.86667H196.733L228.733 249H174.867L170.067 206.867H102.333L85.2667 249H34.0667L135.4 6.86667Z" fill="#8076F8"/>
<path d="M139.333 54.3333C136.844 60.3778 134 68.0222 130.8 77.2667C127.6 86.5111 124.044 96.4667 120.133 107.133C116.222 117.444 112.133 128.289 107.867 139.667C103.956 150.689 99.8667 161.533 95.6 172.2H147.867C147.156 161.533 146.267 150.689 145.2 139.667C144.133 128.289 143.244 117.444 142.533 107.133C141.822 96.4667 141.111 86.5111 140.4 77.2667C139.689 68.0222 139.333 60.3778 139.333 54.3333ZM116.4 6.86667H177.733L209.733 249H155.867L151.067 206.867H83.3333L66.2667 249H15.0667L116.4 6.86667Z" fill="#FFEF5A"/>
</g>
<defs>
<clipPath id="clip0">
<rect width="256" height="256" fill="white"/>
</clipPath>
</defs>
</svg>
